# xmcd CD database file
#
# Track frame offsets:
#	150
#	17934
#	30450
#	53436
#	75995
#	100507
#	119835
#	139580
#	155977
#	174747
#	196163
#	215036
#	238868
#	259746
#	279777
#	300549
#
# Disc length: 4294 seconds
#
# Revision: 1
# Processed by: cddbd v1.5.1PL2 Copyright (c) Steve Scherf et al.
# Submitted via: CDex 1.51
#
DISCID=d610c410
DTITLE=Salsa y Merengue - Salsa y Merengue
DYEAR=2002
DGENRE=Merengue
TTITLE0=Mayonessa - Chocolate
TTITLE1=Pirulin pin pon - Tu hombre II
TTITLE2=Pegame tu vicio - Hedi Errera
TTITLE3=Tuvas a volar - Rubby Perez
TTITLE4=El beeper - Oro Solido
TTITLE5=Tu carinito - Puertorican power
TTITLE6=La vaca - Mala fe
TTITLE7=El maiz - Freddy Gerardo
TTITLE8=Yo si me enamore - Huey dinbar
TTITLE9=Ella se fue - Ricky Castro
TTITLE10=A lo oscuro - Mala fe
TTITLE11=Te conozco bien - Marck Anthony
TTITLE12=Un beso y una flor - Hermanos Rosario
TTITLE13=Cuando el amor se dana - Rikarena
TTITLE14=Procura - Chiche peralta
TTITLE15=No eres la mujer - Victor Manuel
EXTD=YEAR: 2002
EXTT0=
EXTT1=
EXTT2=
EXTT3=
EXTT4=
EXTT5=
EXTT6=
EXTT7=
EXTT8=
EXTT9=
EXTT10=
EXTT11=
EXTT12=
EXTT13=
EXTT14=
EXTT15=
PLAYORDER=
